<svg width="30" height="31" viewBox="0 0 30 31" fill="none" xmlns="http://www.w3.org/2000/svg">
<path d="M27.8571 0.0313721H2.13616C0.957589 0.0313721 0 1.00282 0 2.19536V27.8818C0 29.0744 0.957589 30.0458 2.13616 30.0458H27.8571C29.0357 30.0458 30 29.0744 30 27.8818V2.19536C30 1.00282 29.0357 0.0313721 27.8571 0.0313721ZM9.06696 25.758H4.62054V11.4342H9.07366V25.758H9.06696ZM6.84375 9.47789C5.41741 9.47789 4.26562 8.31885 4.26562 6.89852C4.26562 5.47819 5.41741 4.31915 6.84375 4.31915C8.26339 4.31915 9.42187 5.47819 9.42187 6.89852C9.42187 8.32555 8.27009 9.47789 6.84375 9.47789V9.47789ZM25.7344 25.758H21.2879V18.7904C21.2879 17.1289 21.2545 14.9917 18.9777 14.9917C16.6607 14.9917 16.3058 16.8006 16.3058 18.6698V25.758H11.8594V11.4342H16.125V13.3905H16.1853C16.7812 12.2649 18.2344 11.0791 20.3973 11.0791C24.8973 11.0791 25.7344 14.0471 25.7344 17.9061V25.758V25.758Z" fill="black"/>
</svg>
